HIERARCHY
ROOT mixamorig:Hips
{
	OFFSET 0.00 0.00 0.00
	CHANNELS 6 Xposition Yposition Zposition Zrotation Yrotation Xrotation
	JOINT mixamorig:Spine
	{
		OFFSET	0.0000	9.9235	-1.2273
		CHANNELS 3 Zrotation Yrotation Xrotation
		JOINT mixamorig:Spine1
		{
			OFFSET	-0.0001	11.6455	-1.4224
			CHANNELS 3 Zrotation Yrotation Xrotation
			JOINT mixamorig:Spine2
			{
				OFFSET	0.0001	13.3602	-1.6265
				CHANNELS 3 Zrotation Yrotation Xrotation
				JOINT mixamorig:Neck
				{
					OFFSET	0.0000	15.0325	0.7929
					CHANNELS 3 Zrotation Yrotation Xrotation
					JOINT mixamorig:Head
					{
						OFFSET	-0.0000	10.3218	3.1424
						CHANNELS 3 Zrotation Yrotation Xrotation
						JOINT mixamorig:HeadTop_End
						{
							OFFSET	0.0002	18.4747	6.6364
							CHANNELS 3 Zrotation Yrotation Xrotation
							End Site
							{
								OFFSET 0.0000 0.0000 0.0000
							}
						}
						JOINT mixamorig:LeftEye
						{
							OFFSET	2.9479	7.6817	9.1207
							CHANNELS 3 Zrotation Yrotation Xrotation
							End Site
							{
								OFFSET 0.0000 0.0000 0.0000
							}
						}
						JOINT mixamorig:RightEye
						{
							OFFSET	-2.9445	7.6817	9.1205
							CHANNELS 3 Zrotation Yrotation Xrotation
							End Site
							{
								OFFSET 0.0000 0.0000 0.0000
							}
						}
					}
				}
				JOINT mixamorig:LeftShoulder
				{
					OFFSET	6.1059	9.1104	0.7056
					CHANNELS 3 Zrotation Yrotation Xrotation
					JOINT mixamorig:LeftArm
					{
						OFFSET	12.6532	-0.3431	-2.6009
						CHANNELS 3 Zrotation Yrotation Xrotation
						JOINT mixamorig:LeftForeArm
						{
							OFFSET	27.3517	-0.9645	-1.4034
							CHANNELS 3 Zrotation Yrotation Xrotation
							JOINT mixamorig:LeftHand
							{
								OFFSET	27.5619	-0.7072	1.5500
								CHANNELS 3 Zrotation Yrotation Xrotation
								JOINT mixamorig:LeftHandMiddle1
								{
									OFFSET	12.6630	-1.3962	0.9548
									CHANNELS 3 Zrotation Yrotation Xrotation
									JOINT mixamorig:LeftHandMiddle2
									{
										OFFSET	3.6093	-0.1669	0.0778
										CHANNELS 3 Zrotation Yrotation Xrotation
										JOINT mixamorig:LeftHandMiddle3
										{
											OFFSET	3.4004	-0.6274	0.1148
											CHANNELS 3 Zrotation Yrotation Xrotation
											End Site
											{
												OFFSET 3.6205 -0.6493 0.1199
											}
										}
									}
								}
								JOINT mixamorig:LeftHandThumb1
								{
									OFFSET	3.3268	-2.0474	3.5790
									CHANNELS 3 Zrotation Yrotation Xrotation
									JOINT mixamorig:LeftHandThumb2
									{
										OFFSET	3.4890	-1.4806	2.8548
										CHANNELS 3 Zrotation Yrotation Xrotation
										JOINT mixamorig:LeftHandThumb3
										{
											OFFSET	3.4086	-1.7658	2.1133
											CHANNELS 3 Zrotation Yrotation Xrotation
											End Site
											{
												OFFSET 2.7231 -1.1597 1.7903
											}
										}
									}
								}
								JOINT mixamorig:LeftHandIndex1
								{
									OFFSET	11.9722	-1.1061	3.7324
									CHANNELS 3 Zrotation Yrotation Xrotation
									JOINT mixamorig:LeftHandIndex2
									{
										OFFSET	3.8387	-0.6406	-0.0310
										CHANNELS 3 Zrotation Yrotation Xrotation
										JOINT mixamorig:LeftHandIndex3
										{
											OFFSET	3.3346	-0.7374	-0.0133
											CHANNELS 3 Zrotation Yrotation Xrotation
											End Site
											{
												OFFSET 2.9714 -0.8030 0.0009
											}
										}
									}
								}
								JOINT mixamorig:LeftHandRing1
								{
									OFFSET	12.1659	-1.6805	-1.2769
									CHANNELS 3 Zrotation Yrotation Xrotation
									JOINT mixamorig:LeftHandRing2
									{
										OFFSET	3.5925	-0.2366	-0.0771
										CHANNELS 3 Zrotation Yrotation Xrotation
										JOINT mixamorig:LeftHandRing3
										{
											OFFSET	3.2906	-0.3266	-0.0615
											CHANNELS 3 Zrotation Yrotation Xrotation
											End Site
											{
												OFFSET 3.5423 -0.9211 -0.0200
											}
										}
									}
								}
								JOINT mixamorig:LeftHandPinky1
								{
									OFFSET	11.0508	-2.1872	-3.8040
									CHANNELS 3 Zrotation Yrotation Xrotation
									JOINT mixamorig:LeftHandPinky2
									{
										OFFSET	4.1236	-0.3047	0.1212
										CHANNELS 3 Zrotation Yrotation Xrotation
										JOINT mixamorig:LeftHandPinky3
										{
											OFFSET	2.5805	-0.2597	0.0823
											CHANNELS 3 Zrotation Yrotation Xrotation
											End Site
											{
												OFFSET 2.9027 -0.3379 0.0963
											}
										}
									}
								}
							}
						}
					}
				}
				JOINT mixamorig:RightShoulder
				{
					OFFSET	-6.1057	9.1105	0.7056
					CHANNELS 3 Zrotation Yrotation Xrotation
					JOINT mixamorig:RightArm
					{
						OFFSET	-12.6532	-0.3429	-2.6009
						CHANNELS 3 Zrotation Yrotation Xrotation
						JOINT mixamorig:RightForeArm
						{
							OFFSET	-27.3518	-0.9642	-1.4034
							CHANNELS 3 Zrotation Yrotation Xrotation
							JOINT mixamorig:RightHand
							{
								OFFSET	-27.5619	-0.7068	1.5501
								CHANNELS 3 Zrotation Yrotation Xrotation
								JOINT mixamorig:RightHandMiddle1
								{
									OFFSET	-12.6630	-1.3960	0.9549
									CHANNELS 3 Zrotation Yrotation Xrotation
									JOINT mixamorig:RightHandMiddle2
									{
										OFFSET	-3.6093	-0.1669	0.0778
										CHANNELS 3 Zrotation Yrotation Xrotation
										JOINT mixamorig:RightHandMiddle3
										{
											OFFSET	-3.4004	-0.6273	0.1148
											CHANNELS 3 Zrotation Yrotation Xrotation
											End Site
											{
												OFFSET -3.6205 -0.6492 0.1199
											}
										}
									}
								}
								JOINT mixamorig:RightHandThumb1
								{
									OFFSET	-3.3269	-2.0474	3.5790
									CHANNELS 3 Zrotation Yrotation Xrotation
									JOINT mixamorig:RightHandThumb2
									{
										OFFSET	-3.4890	-1.4805	2.8548
										CHANNELS 3 Zrotation Yrotation Xrotation
										JOINT mixamorig:RightHandThumb3
										{
											OFFSET	-3.4086	-1.7658	2.1133
											CHANNELS 3 Zrotation Yrotation Xrotation
											End Site
											{
												OFFSET -2.7231 -1.1596 1.7903
											}
										}
									}
								}
								JOINT mixamorig:RightHandIndex1
								{
									OFFSET	-11.9722	-1.1059	3.7324
									CHANNELS 3 Zrotation Yrotation Xrotation
									JOINT mixamorig:RightHandIndex2
									{
										OFFSET	-3.8387	-0.6406	-0.0310
										CHANNELS 3 Zrotation Yrotation Xrotation
										JOINT mixamorig:RightHandIndex3
										{
											OFFSET	-3.3346	-0.7373	-0.0133
											CHANNELS 3 Zrotation Yrotation Xrotation
											End Site
											{
												OFFSET -2.9715 -0.8029 0.0009
											}
										}
									}
								}
								JOINT mixamorig:RightHandRing1
								{
									OFFSET	-12.1659	-1.6803	-1.2769
									CHANNELS 3 Zrotation Yrotation Xrotation
									JOINT mixamorig:RightHandRing2
									{
										OFFSET	-3.5925	-0.2366	-0.0771
										CHANNELS 3 Zrotation Yrotation Xrotation
										JOINT mixamorig:RightHandRing3
										{
											OFFSET	-3.2906	-0.3265	-0.0615
											CHANNELS 3 Zrotation Yrotation Xrotation
											End Site
											{
												OFFSET -3.5423 -0.9210 -0.0200
											}
										}
									}
								}
								JOINT mixamorig:RightHandPinky1
								{
									OFFSET	-11.0508	-2.1870	-3.8040
									CHANNELS 3 Zrotation Yrotation Xrotation
									JOINT mixamorig:RightHandPinky2
									{
										OFFSET	-4.1236	-0.3046	0.1212
										CHANNELS 3 Zrotation Yrotation Xrotation
										JOINT mixamorig:RightHandPinky3
										{
											OFFSET	-2.5805	-0.2597	0.0823
											CHANNELS 3 Zrotation Yrotation Xrotation
											End Site
											{
												OFFSET -2.9027 -0.3379 0.0963
											}
										}
									}
								}
							}
						}
					}
				}
			}
		}
	}
	JOINT mixamorig:RightUpLeg
	{
		OFFSET	-9.1245	-6.6564	-0.0554
		CHANNELS 3 Zrotation Yrotation Xrotation
		JOINT mixamorig:RightLeg
		{
			OFFSET	0.0000	-40.5610	-1.7662
			CHANNELS 3 Zrotation Yrotation Xrotation
			JOINT mixamorig:RightFoot
			{
				OFFSET	0.4978	-41.9625	-3.3512
				CHANNELS 3 Zrotation Yrotation Xrotation
				JOINT mixamorig:RightToeBase
				{
					OFFSET	-0.3734	-10.4922	12.6406
					CHANNELS 3 Zrotation Yrotation Xrotation
					End Site
					{
						OFFSET 0.0000 0.0000 9.9925
					}
				}
			}
		}
	}
	JOINT mixamorig:LeftUpLeg
	{
		OFFSET	9.1245	-6.6564	-0.0554
		CHANNELS 3 Zrotation Yrotation Xrotation
		JOINT mixamorig:LeftLeg
		{
			OFFSET	-0.0000	-40.5610	-1.7662
			CHANNELS 3 Zrotation Yrotation Xrotation
			JOINT mixamorig:LeftFoot
			{
				OFFSET	-0.4978	-41.9625	-3.3512
				CHANNELS 3 Zrotation Yrotation Xrotation
				JOINT mixamorig:LeftToeBase
				{
					OFFSET	0.3734	-10.4922	12.6406
					CHANNELS 3 Zrotation Yrotation Xrotation
					End Site
					{
						OFFSET -0.0000 0.0000 9.9925
					}
				}
			}
		}
	}
}
MOTION
Frames: 5
Frame Time: 0.0333333
0.3748 98.1691 -1.3235 0.1706 -2.3177 -4.4021 -0.6082 -1.0263 3.6630 -0.9954 -1.8739 7.1955 -1.0865 -1.8775 7.1882 -0.2504 2.2441 -7.6912 -0.8850 10.8875 -0.4435 0.0000 -0.0000 0.0000 0.0000 -0.0000 0.0000 0.0000 -0.0000 0.0000 -8.0046 2.9853 0.1650 -56.0771 -21.5556 55.3975 -0.4373 -21.4016 -0.5756 -8.0684 15.7311 -19.9557 -22.8326 -3.5864 1.5370 -8.6956 0.0217 0.2393 -8.5251 -0.3621 0.2434 -10.4968 24.1967 -6.7085 1.5676 13.3189 0.3892 -1.3204 9.3419 2.9138 -16.0352 -5.3651 0.5461 -13.4917 -0.3430 -0.1055 -5.5907 -0.0509 -0.0202 -21.7839 -6.0641 1.2029 -14.5821 -0.4866 -0.2695 0.6658 0.4148 0.0847 -21.2868 0.8957 1.7089 -14.8533 -4.4886 1.2299 -7.3464 -0.2538 0.2265 9.7730 15.5287 7.7880 56.4450 -7.7759 68.0091 -0.0716 45.1273 -1.4781 -8.4306 -19.4198 -50.4629 27.9670 3.6126 1.9571 16.5854 0.2321 0.4606 12.4781 0.4916 0.3757 1.0654 -7.0144 3.7018 -1.0586 -14.6844 1.1489 1.5314 -7.9921 2.1789 21.1661 5.4404 0.9598 21.4001 0.5989 -0.1291 9.5450 0.1754 -0.0452 26.9203 6.0977 1.6227 22.4873 0.7938 -0.3593 3.2880 -0.2811 0.0018 26.3745 3.2166 1.8209 22.8661 0.6853 0.7753 11.2991 0.3822 0.3613 -0.9891 -10.8903 -11.8129 -5.3286 -1.1005 19.9097 4.8022 -0.3039 -3.4572 0.0000 -0.0000 -0.2677 2.7131 0.3277 -10.6205 4.6308 6.9421 19.9236 -5.6165 2.0138 -4.0126 -0.0000 0.0000 -1.9083 
0.5299 98.1669 -1.2576 0.0302 -2.1026 -4.4252 -0.7353 -0.9092 3.5506 -1.0933 -1.6485 6.9720 -1.1807 -1.6538 6.9630 -0.2743 2.1354 -7.5902 -0.5772 10.2989 -0.2174 0.0000 -0.0000 0.0000 0.0000 -0.0000 0.0000 0.0000 -0.0000 0.0000 -7.8320 2.9514 0.1737 -56.0727 -21.4478 54.7382 -0.4328 -21.8104 -0.5877 -8.0590 15.5580 -21.3042 -22.5177 -3.5819 1.5112 -8.3802 0.0336 0.2313 -8.3674 -0.3561 0.2384 -10.5059 24.3292 -6.7188 1.5513 13.5564 0.4182 -1.3269 9.4609 2.9276 -15.7195 -5.3576 0.5209 -13.1762 -0.3317 -0.1037 -5.4330 -0.0454 -0.0189 -21.4679 -6.0591 1.1771 -14.2667 -0.4735 -0.2651 0.8235 0.4206 0.0883 -20.9739 0.9009 1.6833 -14.5368 -4.4823 1.1964 -7.1887 -0.2479 0.2214 9.9854 15.4492 7.8063 54.7901 -7.7862 67.5524 -0.0496 44.5204 -1.4470 -4.6007 -17.2212 -51.9062 27.9190 3.6123 1.9531 16.5414 0.2307 0.4593 12.4561 0.4909 0.3749 1.0652 -7.0066 3.7011 -1.0714 -14.4650 1.1224 1.5246 -7.8822 2.1668 21.1179 5.4397 0.9559 21.3561 0.5973 -0.1291 9.5230 0.1746 -0.0451 26.8721 6.0974 1.6187 22.4434 0.7919 -0.3589 3.2660 -0.2819 0.0022 26.3265 3.2163 1.8170 22.8221 0.6841 0.7736 11.2771 0.3814 0.3605 -0.9436 -10.9576 -11.6134 -5.3817 -0.9578 19.7101 4.9825 -0.3086 -3.4161 0.0000 0.0000 -0.2603 2.8444 -0.2464 -10.6986 4.4246 6.9399 20.1685 -5.4729 2.3039 -4.2065 -0.0000 0.0000 -1.8282 
0.6652 98.1572 -1.2203 -0.0930 -1.8944 -4.5285 -0.8788 -0.7996 3.4914 -1.2600 -1.4365 6.8562 -1.3440 -1.4433 6.8449 -0.1670 2.0125 -7.6136 -0.2325 9.7679 -0.2072 0.0000 -0.0000 0.0000 0.0000 -0.0000 0.0000 0.0000 -0.0000 0.0000 -7.4326 2.8667 0.1958 -56.1786 -21.4418 54.0529 -0.4286 -22.1841 -0.5989 -8.1305 15.6494 -22.6532 -22.2253 -3.5775 1.4872 -8.0879 0.0446 0.2239 -8.2213 -0.3507 0.2337 -10.5145 24.4524 -6.7284 1.5364 13.7768 0.4451 -1.3329 9.5714 2.9405 -15.4264 -5.3504 0.4975 -12.8838 -0.3213 -0.1021 -5.2868 -0.0403 -0.0177 -21.1744 -6.0543 1.1531 -13.9744 -0.4614 -0.2609 0.9697 0.4259 0.0917 -20.6833 0.9059 1.6595 -14.2434 -4.4763 1.1654 -7.0425 -0.2425 0.2166 10.4579 15.4018 7.9012 53.2177 -7.7279 66.4192 -0.0056 43.2443 -1.3838 -1.4819 -13.4007 -53.2357 27.7711 3.6114 1.9409 16.3661 0.2250 0.4540 12.3685 0.4879 0.3719 1.0639 -6.9526 3.6960 -1.0890 -14.1680 1.0864 1.5155 -7.7334 2.1504 20.9697 5.4374 0.9438 21.1808 0.5912 -0.1290 9.4353 0.1717 -0.0446 26.7237 6.0963 1.6064 22.2681 0.7846 -0.3574 3.1783 -0.2852 0.0040 26.1788 3.2150 1.8048 22.6468 0.6795 0.7666 11.1895 0.3785 0.3575 -0.9615 -10.9181 -11.3776 -5.3841 -0.9296 19.5968 5.1180 -0.3087 -3.4031 0.0000 -0.0000 -0.2525 2.9033 -0.7174 -10.7159 4.3624 6.9080 20.4211 -5.4024 2.4772 -4.3744 -0.0000 0.0000 -1.7529 
0.7900 98.1498 -1.1842 -0.1885 -1.7163 -4.6986 -1.0301 -0.7059 3.4762 -1.4848 -1.2559 6.8292 -1.5653 -1.2639 6.8155 0.0565 1.8856 -7.7201 0.1363 9.3337 -0.3135 0.0000 -0.0000 0.0000 0.0000 -0.0000 0.0000 0.0000 -0.0000 0.0000 -6.9323 2.7128 0.2360 -56.2372 -21.4105 53.0259 -0.4243 -22.5498 -0.6099 -8.0750 16.0214 -23.4768 -21.9564 -3.5734 1.4651 -7.8196 0.0548 0.2171 -8.0871 -0.3456 0.2295 -10.5224 24.5667 -6.7374 1.5227 13.9806 0.4700 -1.3384 9.6736 2.9523 -15.1568 -5.3437 0.4760 -12.6154 -0.3118 -0.1005 -5.1526 -0.0356 -0.0166 -20.9045 -6.0498 1.1310 -13.7061 -0.4503 -0.2570 1.1039 0.4308 0.0948 -20.4161 0.9106 1.6376 -13.9742 -4.4706 1.1369 -6.9084 -0.2375 0.2122 11.0401 15.3369 8.0152 51.8933 -7.4812 64.8581 0.0628 41.0782 -1.2823 0.3648 -9.3797 -54.2382 26.9359 3.6059 1.8719 15.2967 0.1897 0.4221 11.8338 0.4696 0.3537 1.0602 -6.8012 3.6816 -1.1161 -13.7175 1.0318 1.5015 -7.5077 2.1256 20.1324 5.4237 0.8758 20.1110 0.5538 -0.1276 8.9005 0.1534 -0.0414 25.8855 6.0895 1.5373 21.1989 0.7398 -0.3478 2.6436 -0.3049 0.0149 25.3440 3.2076 1.7360 21.5772 0.6507 0.7244 10.6548 0.3603 0.3388 -1.0504 -10.8058 -11.0791 -5.3282 -0.9583 19.5113 5.2176 -0.3075 -3.4052 0.0000 0.0000 -0.2447 2.9051 -1.1947 -10.6278 4.3562 6.8656 20.6135 -5.3695 2.6750 -4.5173 -0.0000 0.0000 -1.6801 
0.9001 98.1577 -1.1413 -0.2492 -1.6325 -4.8725 -1.1768 -0.6234 3.4679 -1.7254 -1.0984 6.8153 -1.8019 -1.1074 6.7996 0.3187 1.7632 -7.7956 0.5197 8.9579 -0.4170 0.0000 -0.0000 0.0000 0.0000 -0.0000 0.0000 0.0000 -0.0000 0.0000 -6.4966 2.4826 0.2963 -56.1623 -21.2215 51.5996 -0.4216 -22.7823 -0.6169 -7.7301 16.4509 -23.4695 -21.7119 -3.5696 1.4451 -7.5761 0.0641 0.2110 -7.9654 -0.3410 0.2256 -10.5297 24.6724 -6.7456 1.5101 14.1686 0.4929 -1.3434 9.7678 2.9632 -14.9118 -5.3376 0.4566 -12.3719 -0.3031 -0.0990 -5.0308 -0.0314 -0.0156 -20.6592 -6.0456 1.1110 -13.4627 -0.4402 -0.2535 1.2256 0.4352 0.0976 -20.1732 0.9150 1.6177 -13.7299 -4.4654 1.1111 -6.7867 -0.2329 0.2083 11.5027 15.2368 8.0839 50.9350 -6.9882 63.2520 0.1280 38.7685 -1.1811 1.5050 -7.0068 -54.3887 25.3502 3.5927 1.7411 13.2819 0.1215 0.3638 10.8264 0.4346 0.3197 1.0543 -6.5678 3.6595 -1.1512 -13.1409 0.9617 1.4835 -7.2188 2.0937 18.5428 5.3951 0.7472 18.0957 0.4835 -0.1233 7.8928 0.1192 -0.0351 24.2941 6.0739 1.4063 19.1843 0.6559 -0.3276 1.6360 -0.3417 0.0360 23.7593 3.1907 1.6058 19.5620 0.5943 0.6463 9.6475 0.3256 0.3040 -1.1815 -10.6512 -10.7483 -5.2051 -0.9492 19.3584 5.2752 -0.3088 -3.3753 0.0000 0.0000 -0.2370 2.8642 -1.6172 -10.4381 4.3648 6.8245 20.6527 -5.3546 2.9148 -4.6007 -0.0000 0.0000 -1.6095 
